<?xml version="1.0" standalone="no"?>
<!DOCTYPE svg PUBLIC "-//W3C//DTD SVG 20010904//EN"
 "http://www.w3.org/TR/2001/REC-SVG-20010904/DTD/svg10.dtd">
<svg version="1.0" xmlns="http://www.w3.org/2000/svg"
 width="721.000000pt" height="721.000000pt" viewBox="0 0 721.000000 721.000000"
 preserveAspectRatio="xMidYMid meet">
<metadata>
Created by potrace 1.14, written by Peter Selinger 2001-2017
</metadata>
<g transform="translate(0.000000,721.000000) scale(0.100000,-0.100000)"
fill="#000000" stroke="none">
<path d="M3249 7206 c-2 -2 -31 -6 -64 -10 -33 -3 -71 -8 -85 -10 -14 -3 -43
-7 -65 -11 -45 -6 -100 -15 -130 -22 -11 -2 -31 -6 -45 -9 -14 -3 -41 -9 -60
-14 -19 -5 -46 -11 -60 -14 -99 -19 -329 -94 -483 -157 -67 -28 -135 -56 -152
-62 -16 -7 -32 -14 -35 -17 -3 -3 -52 -29 -110 -58 -86 -43 -205 -110 -324
-185 -29 -17 -196 -136 -231 -164 -83 -64 -97 -76 -190 -156 -111 -97 -325
-319 -399 -415 -11 -15 -23 -29 -27 -32 -8 -7 -179 -239 -179 -243 0 -3 -22
-38 -50 -80 -27 -41 -57 -91 -66 -111 -10 -20 -22 -36 -26 -36 -5 0 -7 -4 -3
-9 3 -5 1 -12 -4 -15 -12 -8 -98 -175 -152 -297 -98 -221 -196 -526 -233 -724
-3 -16 -12 -66 -20 -110 -9 -44 -18 -102 -21 -129 -4 -27 -8 -57 -10 -67 -26
-134 -26 -769 0 -869 2 -8 6 -40 10 -71 3 -31 8 -67 10 -80 3 -13 7 -37 10
-54 32 -187 138 -574 184 -670 6 -11 29 -65 52 -120 48 -115 148 -316 196
-392 18 -29 33 -54 33 -57 0 -5 21 -37 103 -160 6 -10 18 -24 25 -32 6 -7 12
-17 12 -21 0 -5 8 -18 18 -29 10 -10 29 -35 42 -54 28 -40 19 -29 147 -180
104 -122 251 -273 347 -355 32 -27 64 -55 70 -61 16 -15 157 -125 190 -149 16
-11 41 -31 57 -43 16 -13 29 -20 29 -15 0 4 4 3 8 -3 6 -11 131 -94 177 -120
11 -6 38 -21 60 -34 22 -13 58 -33 80 -44 22 -12 47 -26 55 -31 8 -5 17 -10
20 -11 3 0 57 -25 120 -55 63 -31 131 -61 150 -68 19 -7 44 -17 55 -22 23 -10
155 -59 170 -63 6 -1 48 -14 95 -28 74 -23 175 -51 233 -64 9 -2 25 -6 35 -8
47 -11 171 -35 202 -40 157 -22 160 -22 275 -33 113 -10 512 -10 625 0 163 15
222 23 390 54 204 37 484 122 705 214 143 59 535 267 565 299 13 14 70 50 80
50 5 0 10 4 10 9 0 5 8 12 18 15 10 4 27 14 38 24 10 10 35 28 54 42 19 13 37
27 40 30 3 3 28 23 55 45 28 22 55 44 62 50 90 77 133 117 227 212 61 61 120
122 132 135 36 39 98 113 129 153 17 21 35 43 40 49 13 14 136 184 150 208 6
9 37 59 69 110 74 116 217 398 273 538 38 94 109 297 118 339 3 9 14 52 26 96
11 44 23 88 25 98 2 10 5 26 8 35 3 9 8 31 11 47 5 29 10 54 20 105 3 14 8 45
11 70 3 25 8 53 9 62 15 78 20 203 20 513 0 319 -4 411 -20 505 -4 23 -9 58
-20 130 -9 58 -46 222 -70 305 -14 50 -27 99 -30 109 -13 52 -87 259 -129 358
-9 21 -15 39 -14 40 3 5 -182 359 -202 388 -11 15 -20 30 -20 33 0 5 -114 180
-131 201 -5 6 -35 47 -67 91 -32 44 -66 88 -76 98 -10 9 -14 17 -9 17 4 0 3 4
-3 8 -6 4 -44 45 -85 92 -139 160 -301 313 -474 450 -49 40 -98 78 -108 86 -9
8 -21 14 -26 14 -5 0 -11 4 -13 8 -4 12 -155 112 -168 112 -5 0 -10 5 -10 10
0 6 -5 10 -10 10 -6 0 -16 5 -23 10 -50 43 -395 216 -547 275 -52 20 -104 40
-115 45 -24 10 -144 49 -171 55 -10 2 -32 8 -49 14 -84 28 -313 79 -427 96
-62 8 -101 14 -143 22 -42 7 -789 15 -796 9z"/>
</g>
</svg>
